HIERARCHY
ROOT SpineBase
{
  OFFSET 0.000000 0.000000 0.000000
  CHANNELS 6 Xposition Yposition Zposition Zrotation Xrotation Yrotation
  JOINT SpineMid
  {
    OFFSET 0.000000 29.656697 0.000000
    CHANNELS 3 Zrotation Xrotation Yrotation
    JOINT SpineShoulder
    {
      OFFSET -0.022505 22.055045 -0.582239
      CHANNELS 3 Zrotation Xrotation Yrotation
      JOINT Neck
      {
        OFFSET -0.028715 7.294543 -0.451756
        CHANNELS 3 Zrotation Xrotation Yrotation
        JOINT Head
        {
          OFFSET -2.076777 12.303106 -0.691550
          CHANNELS 3 Zrotation Xrotation Yrotation
          End Site
          {
            OFFSET 0 0 0
          }
        }
      }
      JOINT ShoulderLeft
      {
        OFFSET -15.629494 -3.218982 5.982737
        CHANNELS 3 Zrotation Xrotation Yrotation
        JOINT ElbowLeft
        {
          OFFSET -4.270720 -26.602538 5.005518
          CHANNELS 3 Zrotation Xrotation Yrotation
          JOINT WristLeft
          {
            OFFSET -3.710755 -19.300668 -3.332690
            CHANNELS 3 Zrotation Xrotation Yrotation
            JOINT HandLeft
            {
              OFFSET 0.202174 -5.191252 -2.607998
              CHANNELS 3 Zrotation Xrotation Yrotation
              JOINT HandTipLeft
              {
                OFFSET -0.661811 -6.728903 -1.802510
                CHANNELS 3 Zrotation Xrotation Yrotation
                End Site
                {
                  OFFSET 0 0 0
                }
              }
              JOINT ThumbLeft
              {
                OFFSET 3.576968 -0.336266 -3.042743
                CHANNELS 3 Zrotation Xrotation Yrotation
                End Site
                {
                  OFFSET 0 0 0
                }
              }
            }
          }
        }
      }
      JOINT ShoulderRight
      {
        OFFSET 13.326047 -2.949892 -7.276587
        CHANNELS 3 Zrotation Xrotation Yrotation
        JOINT ElbowRight
        {
          OFFSET 5.412819 -21.248240 -2.832760
          CHANNELS 3 Zrotation Xrotation Yrotation
          JOINT WristRight
          {
            OFFSET 1.694177 -26.952962 -4.397944
            CHANNELS 3 Zrotation Xrotation Yrotation
            JOINT HandRight
            {
              OFFSET -1.333691 -7.552831 -2.612401
              CHANNELS 3 Zrotation Xrotation Yrotation
              JOINT HandTipRight
              {
                OFFSET -0.211267 -7.124584 -2.026995
                CHANNELS 3 Zrotation Xrotation Yrotation
                End Site
                {
                  OFFSET 0 0 0
                }
              }
              JOINT ThumbRight
              {
                OFFSET 2.309972 -0.357337 -2.580848
                CHANNELS 3 Zrotation Xrotation Yrotation
                End Site
                {
                  OFFSET 0 0 0
                }
              }
            }
          }
        }
      }
    }
  }
  JOINT HipLeft
  {
    OFFSET -7.138708 -0.079325 -0.861986
    CHANNELS 3 Zrotation Xrotation Yrotation
    JOINT KneeLeft
    {
      OFFSET -7.499890 -25.362095 4.793998
      CHANNELS 3 Zrotation Xrotation Yrotation
      JOINT AnkleLeft
      {
        OFFSET -1.453737 -39.719847 7.355225
        CHANNELS 3 Zrotation Xrotation Yrotation
        JOINT FootLeft
        {
          OFFSET -3.738767 -7.206645 -5.465136
          CHANNELS 3 Zrotation Xrotation Yrotation
          End Site
          {
            OFFSET 0 0 0
          }
        }
      }
    }
  }
  JOINT HipRight
  {
    OFFSET 6.558140 1.068385 -5.260809
    CHANNELS 3 Zrotation Xrotation Yrotation
    JOINT KneeRight
    {
      OFFSET 5.003867 -32.092410 5.032526
      CHANNELS 3 Zrotation Xrotation Yrotation
      JOINT AnkleRight
      {
        OFFSET 1.460228 -33.815052 9.044492
        CHANNELS 3 Zrotation Xrotation Yrotation
        JOINT FootRight
        {
          OFFSET -4.889580 -2.699531 -14.128271
          CHANNELS 3 Zrotation Xrotation Yrotation
          End Site
          {
            OFFSET 0 0 0
          }
        }
      }
    }
  }
}
MOTION
Frames: 8
Frame Time: 0.033333
37.122036 74.433856 375.834517 -0.000000 0.000000 17.804725 -0.000000 0.000000 -17.804725 -0.000000 0.000000 0.000000 -0.000000 0.000000 0.000000 0.000000 0.000000 0.000000 -0.000000 0.000000 0.000000 -0.000000 0.000000 0.000000 -0.000000 0.000000 0.000000 -0.000000 0.000000 0.000000 0.000000 0.000000 0.000000 0.000000 0.000000 0.000000 -0.000000 0.000000 0.000000 -0.000000 0.000000 0.000000 -0.000000 0.000000 0.000000 -0.000000 0.000000 0.000000 0.000000 0.000000 0.000000 0.000000 0.000000 0.000000 -0.000000 0.000000 -17.804725 -0.000000 0.000000 0.000000 -0.000000 0.000000 0.000000 0.000000 0.000000 0.000000 -0.000000 0.000000 -17.804725 -0.000000 0.000000 0.000000 -0.000000 0.000000 0.000000 0.000000 0.000000 0.000000
37.141976 74.425296 375.767528 -0.029555 0.024453 17.622646 0.020765 -0.032253 -17.622634 -0.000000 0.000000 0.000000 -0.000000 0.000000 0.000000 0.000000 0.000000 0.000000 -0.000000 0.000000 0.000000 0.869883 0.325183 -0.215405 0.734894 -3.594214 -0.673764 1.508502 1.813435 0.150200 0.000000 0.000000 0.000000 0.000000 0.000000 0.000000 -0.000000 0.000000 0.000000 -0.000000 0.000000 0.000000 -0.000000 0.000000 0.000000 -0.830091 0.901193 0.215447 0.000000 0.000000 0.000000 0.000000 0.000000 0.000000 1.266986 -0.301945 -17.413889 -1.269806 -0.115668 -0.206393 -1.728466 1.035209 0.777986 0.000000 0.000000 0.000000 0.020765 -0.032253 -17.622634 -0.000000 0.000000 0.000000 2.797183 -8.181024 0.689762 0.000000 0.000000 0.000000
37.158458 74.417962 375.714472 -0.063703 0.049304 17.477787 0.045954 -0.066160 -17.477733 -0.000000 0.000000 0.000000 -0.000000 0.000000 0.000000 0.000000 0.000000 0.000000 -0.000000 0.000000 0.000000 1.532345 0.545089 -0.377358 1.514427 -6.689177 -1.234838 2.633255 3.349396 0.215020 0.000000 0.000000 0.000000 0.000000 0.000000 0.000000 -0.766707 0.800581 0.311759 0.762415 -0.804669 -0.301048 0.317892 -0.925396 0.056209 -1.801790 2.599084 0.365830 0.000000 0.000000 0.000000 0.000000 0.000000 0.000000 2.186441 -0.513957 -17.117176 -2.177426 -0.202242 -0.353563 -3.123839 2.008620 1.345173 0.000000 0.000000 0.000000 0.377265 0.826118 -17.323990 -0.050604 -0.950452 -0.156361 5.846227 -16.466441 1.699936 0.000000 0.000000 0.000000
37.171483 74.411853 375.675347 -0.102447 0.074563 17.369974 0.075515 -0.101747 -17.369840 -0.000000 0.000000 0.000000 1.014542 -0.020753 0.053628 0.000000 0.000000 0.000000 -0.000000 0.000000 0.000000 2.025239 0.678294 -0.493308 2.273615 -9.214234 -1.690996 3.285025 4.560336 0.303224 0.000000 0.000000 0.000000 0.000000 0.000000 0.000000 -1.017990 1.021700 0.405507 1.010897 -1.028718 -0.387355 0.395440 -1.362851 0.109108 -2.347679 3.673776 0.471126 0.000000 0.000000 0.000000 0.000000 0.000000 0.000000 2.839563 -0.660993 -16.903776 -2.807132 -0.269038 -0.454255 -4.177497 2.930524 1.690715 0.000000 0.000000 0.000000 0.613140 1.191228 -17.137175 -0.132846 -1.393966 -0.239393 8.927307 -24.028311 2.906964 0.000000 0.000000 0.000000
37.181050 74.406971 375.650154 -0.145797 0.100242 17.299088 0.109394 -0.139062 -17.298828 -0.000000 0.000000 0.000000 1.228858 -0.030434 0.064148 0.000000 0.000000 0.000000 -0.000000 0.000000 0.000000 2.374714 0.736951 -0.568699 2.963433 -11.108868 -2.055653 3.383637 5.413859 0.517395 0.000000 0.000000 0.000000 0.000000 0.000000 0.000000 -1.206264 1.153621 0.467476 1.197059 -1.163170 -0.443179 0.419694 -1.785150 0.177695 -2.646653 4.593813 0.508113 0.000000 0.000000 0.000000 0.000000 0.000000 0.000000 3.275681 -0.757703 -16.766816 -3.209983 -0.321715 -0.516241 -4.884723 3.808859 1.806645 0.000000 0.000000 0.000000 0.882786 1.515705 -16.986602 -0.256426 -1.808461 -0.325565 11.691981 -30.126020 4.018050 0.000000 0.000000 0.000000
37.187159 74.403314 375.638892 -0.193764 0.126353 17.265065 0.147534 -0.178167 -17.264622 -0.000000 0.000000 0.000000 1.379036 -0.041551 0.070859 0.000000 0.000000 0.000000 -0.000000 0.000000 0.000000 2.598600 0.728652 -0.607379 3.546285 -12.321298 -2.343394 2.860627 5.883810 0.937550 0.000000 0.000000 0.000000 0.000000 0.000000 0.000000 -1.342177 1.207760 0.501558 1.331856 -1.219133 -0.473240 0.391015 -2.193505 0.261508 -2.693682 5.356757 0.466818 0.000000 0.000000 0.000000 0.000000 0.000000 0.000000 3.523083 -0.812057 -16.702423 -3.415113 -0.363788 -0.543866 -5.243139 4.648249 1.686912 0.000000 0.000000 0.000000 1.187223 1.792921 -16.872729 -0.616880 -3.072839 -0.511610 13.814007 -33.399437 4.466249 0.000000 0.000000 0.000000
37.186247 74.397918 375.655985 -0.251196 0.165378 17.334920 0.190513 -0.232711 -17.334171 -0.000000 0.000000 0.000000 1.468326 -0.150964 0.058858 0.000000 0.000000 0.000000 -0.000000 0.000000 0.000000 2.894543 0.809699 -0.678507 4.343249 -13.714445 -2.684748 0.670231 6.128411 2.194641 0.000000 0.000000 0.000000 0.000000 0.000000 0.000000 -1.427157 1.092831 0.483200 1.418154 -1.104489 -0.455919 0.281918 -2.950520 0.434933 -2.765047 8.092931 0.378702 0.000000 0.000000 0.000000 0.000000 0.000000 0.000000 3.641910 -0.788769 -16.791059 -3.464666 -0.465470 -0.526414 -4.578945 1.880781 2.490585 0.000000 0.000000 0.000000 1.478271 1.876308 -16.883528 -0.861215 -3.494091 -0.603646 16.893068 -39.402777 4.707490 0.000000 0.000000 0.000000
37.183603 74.394585 375.691797 -0.313560 0.193682 17.435753 0.241122 -0.278735 -17.434637 -0.000000 0.000000 0.000000 1.488569 -0.191530 0.053711 0.000000 0.000000 0.000000 -0.000000 0.000000 0.000000 3.203136 0.914788 -0.757714 3.841073 -14.258502 -2.508047 0.337987 5.617589 2.457662 0.000000 0.000000 0.000000 0.000000 0.000000 0.000000 -1.303545 0.926429 0.421102 0.522807 -0.525707 -0.257670 0.777829 -3.694584 0.433535 -1.404511 7.308634 -0.158602 0.000000 0.000000 0.000000 0.000000 0.000000 0.000000 3.474264 -0.682097 -16.969915 -3.209930 -0.558395 -0.453252 -3.892027 0.196998 2.803491 0.000000 0.000000 0.000000 1.833351 1.898479 -16.921713 -1.250412 -3.788195 -0.721297 15.244936 -36.421148 2.912639 0.000000 0.000000 0.000000
